<svg xmlns="http://www.w3.org/2000/svg" viewBox="0 0 64 64">
  <path d="M12 8 L40 8 L52 20 L52 56 L12 56 Z" fill="#e3f2fd" stroke="#4a90e2" stroke-width="2"/>
  <path d="M40 8 L40 20 L52 20" fill="#bbdefb" stroke="#4a90e2" stroke-width="2"/>
  
  <rect x="18" y="18" width="28" height="14" fill="#b39ddb" rx="2" /> <line x1="18" y1="38" x2="46" y2="38" stroke="#4a90e2" stroke-width="2"/> <line x1="18" y1="44" x2="46" y2="44" stroke="#4a90e2" stroke-width="2"/> <line x1="18" y1="50" x2="36" y2="50" stroke="#4a90e2" stroke-width="2"/> <g fill="#ffb74d" stroke="#e65100" stroke-width="2">
    <path d="M32 24 C20 24 12 34 12 34 C12 34 20 44 32 44 C44 44 52 34 52 34 C52 34 44 24 32 24 Z" />
    <circle cx="32" cy="34" r="6" fill="#e65100" stroke="none"/>
  </g>
</svg>
